<?xml version="1.0" encoding="UTF-8"?>
<svg xmlns="http://www.w3.org/2000/svg" viewBox="0 0 800 1200" width="800" height="1200" role="img">
  <title>gallery-g-02.svg</title>
  <defs>
    <linearGradient id="bg-1864" x1="0" y1="0" x2="0" y2="1">
      <stop offset="0%" stop-color="#2E1D38"/>
      <stop offset="70%" stop-color="#17101C"/>
      <stop offset="100%" stop-color="#17101C"/>
    </linearGradient>
    <radialGradient id="spot-1864" cx="632" cy="648" r="744" gradientUnits="userSpaceOnUse">
      <stop offset="0%" stop-color="#E9A13B" stop-opacity="0.42"/>
      <stop offset="55%" stop-color="#E9A13B" stop-opacity="0.12"/>
      <stop offset="100%" stop-color="#E9A13B" stop-opacity="0"/>
    </radialGradient>
    <!-- Ο κόκκος φτιάχνεται μία φορά σε μικρό πλακίδιο και επαναλαμβάνεται,
         ώστε το φίλτρο να μην τρέχει σε ολόκληρη την εικόνα. -->
    <filter id="noise-1864" x="0" y="0" width="100%" height="100%">
      <feTurbulence type="fractalNoise" baseFrequency="0.9" numOctaves="2" seed="1864"/>
      <feColorMatrix type="saturate" values="0"/>
    </filter>
    <pattern id="grain-1864" width="140" height="140" patternUnits="userSpaceOnUse">
      <rect width="140" height="140" filter="url(#noise-1864)" opacity="0.5"/>
    </pattern>
  </defs>
  <rect width="800" height="1200" fill="url(#bg-1864)"/>
  <rect width="800" height="1200" fill="url(#spot-1864)"/>
  <g opacity="0.5">
    <rect x="0" y="1008" width="800" height="1.5" fill="#E9A13B" opacity="0.35"/>
    <rect x="0" y="1009.5" width="800" height="60" fill="#17101C" opacity="0.35"/>
  </g>
  <ellipse cx="632.0" cy="1008.0" rx="132.0" ry="19.2" fill="#17101C" opacity="0.55"/>
  <g transform="translate(128.0 769.5) scale(4.877)"><g opacity="0.100">
      <line x1="0" y1="0" x2="-2.8" y2="-39.9" stroke="#E9A13B" stroke-width="5" stroke-linecap="round" stroke-linejoin="round" fill="none"/>
      <circle cx="-3.6" cy="-51.9" r="7" fill="#E9A13B"/>
      <polyline points="-2.8,-39.9 -8.6,-55.9 -12.1,-72.5" stroke="#E9A13B" stroke-width="5" stroke-linecap="round" stroke-linejoin="round" fill="none"/>
      <polyline points="-2.8,-39.9 0.7,-56.5 1.9,-73.5" stroke="#E9A13B" stroke-width="5" stroke-linecap="round" stroke-linejoin="round" fill="none"/>
      <polyline points="0.0,0.0 -2.2,24.9 -3.5,49.9" stroke="#E9A13B" stroke-width="5" stroke-linecap="round" stroke-linejoin="round" fill="none"/>
      <polyline points="0.0,0.0 2.2,24.9 3.5,49.9" stroke="#E9A13B" stroke-width="5" stroke-linecap="round" stroke-linejoin="round" fill="none"/>
    </g></g>
    <g transform="translate(254.0 739.8) scale(5.081)"><g opacity="0.205">
      <line x1="0" y1="0" x2="-5.8" y2="-39.6" stroke="#E9A13B" stroke-width="5" stroke-linecap="round" stroke-linejoin="round" fill="none"/>
      <circle cx="-7.6" cy="-51.4" r="7" fill="#E9A13B"/>
      <polyline points="-5.8,-39.6 -9.2,-56.2 -10.2,-73.2" stroke="#E9A13B" stroke-width="5" stroke-linecap="round" stroke-linejoin="round" fill="none"/>
      <polyline points="-5.8,-39.6 5.8,-52.0 16.3,-65.3" stroke="#E9A13B" stroke-width="5" stroke-linecap="round" stroke-linejoin="round" fill="none"/>
      <polyline points="0.0,0.0 -6.4,24.2 -12.4,48.4" stroke="#E9A13B" stroke-width="5" stroke-linecap="round" stroke-linejoin="round" fill="none"/>
      <polyline points="0.0,0.0 2.1,24.9 3.4,49.9" stroke="#E9A13B" stroke-width="5" stroke-linecap="round" stroke-linejoin="round" fill="none"/>
    </g></g>
    <g transform="translate(380.0 727.5) scale(5.284)"><g opacity="0.310">
      <line x1="0" y1="0" x2="-12.4" y2="-38.0" stroke="#E9A13B" stroke-width="5" stroke-linecap="round" stroke-linejoin="round" fill="none"/>
      <circle cx="-16.1" cy="-49.5" r="7" fill="#E9A13B"/>
      <polyline points="-12.4,-38.0 -10.3,-54.9 -5.6,-71.3" stroke="#E9A13B" stroke-width="5" stroke-linecap="round" stroke-linejoin="round" fill="none"/>
      <polyline points="-12.4,-38.0 3.5,-32.0 19.0,-25.0" stroke="#E9A13B" stroke-width="5" stroke-linecap="round" stroke-linejoin="round" fill="none"/>
      <polyline points="0.0,0.0 -14.9,20.1 -30.1,39.9" stroke="#E9A13B" stroke-width="5" stroke-linecap="round" stroke-linejoin="round" fill="none"/>
      <polyline points="0.0,0.0 2.0,24.9 3.1,49.9" stroke="#E9A13B" stroke-width="5" stroke-linecap="round" stroke-linejoin="round" fill="none"/>
    </g></g>
    <g transform="translate(506.0 739.8) scale(5.487)"><g opacity="0.415">
      <line x1="0" y1="0" x2="-18.5" y2="-35.4" stroke="#E9A13B" stroke-width="5" stroke-linecap="round" stroke-linejoin="round" fill="none"/>
      <circle cx="-24.1" cy="-46.1" r="7" fill="#E9A13B"/>
      <polyline points="-18.5,-35.4 -11.2,-50.8 -1.4,-64.7" stroke="#E9A13B" stroke-width="5" stroke-linecap="round" stroke-linejoin="round" fill="none"/>
      <polyline points="-18.5,-35.4 -18.3,-18.4 -21.1,-1.7" stroke="#E9A13B" stroke-width="5" stroke-linecap="round" stroke-linejoin="round" fill="none"/>
      <polyline points="0.0,0.0 -21.2,13.2 -43.1,25.2" stroke="#E9A13B" stroke-width="5" stroke-linecap="round" stroke-linejoin="round" fill="none"/>
      <polyline points="0.0,0.0 1.8,24.9 2.8,49.9" stroke="#E9A13B" stroke-width="5" stroke-linecap="round" stroke-linejoin="round" fill="none"/>
    </g></g>
    <g transform="translate(632.0 769.5) scale(5.690)"><g opacity="0.960">
      <line x1="0" y1="0" x2="-21.2" y2="-33.9" stroke="#F5F1EC" stroke-width="6" stroke-linecap="round" stroke-linejoin="round" fill="none"/>
      <circle cx="-27.6" cy="-44.1" r="7" fill="#F5F1EC"/>
      <polyline points="-21.2,-33.9 -11.7,-48.0 0.1,-60.2" stroke="#F5F1EC" stroke-width="6" stroke-linecap="round" stroke-linejoin="round" fill="none"/>
      <polyline points="-21.2,-33.9 -29.7,-19.2 -41.5,-7.0" stroke="#F5F1EC" stroke-width="6" stroke-linecap="round" stroke-linejoin="round" fill="none"/>
      <polyline points="0.0,0.0 -23.2,9.4 -47.0,17.1" stroke="#F5F1EC" stroke-width="6" stroke-linecap="round" stroke-linejoin="round" fill="none"/>
      <polyline points="0.0,0.0 1.7,24.9 2.6,49.9" stroke="#F5F1EC" stroke-width="6" stroke-linecap="round" stroke-linejoin="round" fill="none"/>
    </g></g>
  <rect width="800" height="1200" fill="url(#grain-1864)" opacity="0.07" style="mix-blend-mode:overlay"/>
</svg>
